ModelForces
version=1
nRows=4
nColumns=203
inDegrees=no

This file contains the forces exerted on a model during a simulation.

A force is a generalized force, meaning that it can be either a force (N) or a torque (Nm).

Units are S.I. units (second, meters, Newtons, ...)
Angles are in degrees.

endheader
time	glut_med1_r	glut_med2_r	glut_med3_r	glut_min1_r	glut_min2_r	glut_min3_r	semimem_r	semiten_r	bifemlh_r	bifemsh_r	sar_r	add_long_r	add_brev_r	add_mag1_r	add_mag2_r	add_mag3_r	tfl_r	pect_r	grac_r	glut_max1_r	glut_max2_r	glut_max3_r	iliacus_r	psoas_r	quad_fem_r	gem_r	peri_r	rect_fem_r	vas_med_r	vas_int_r	vas_lat_r	med_gas_r	lat_gas_r	soleus_r	tib_post_r	flex_dig_r	flex_hal_r	tib_ant_r	per_brev_r	per_long_r	per_tert_r	ext_dig_r	ext_hal_r	glut_med1_l	glut_med2_l	glut_med3_l	glut_min1_l	glut_min2_l	glut_min3_l	semimem_l	semiten_l	bifemlh_l	bifemsh_l	sar_l	add_long_l	add_brev_l	add_mag1_l	add_mag2_l	add_mag3_l	tfl_l	pect_l	grac_l	glut_max1_l	glut_max2_l	glut_max3_l	iliacus_l	psoas_l	quad_fem_l	gem_l	peri_l	rect_fem_l	vas_med_l	vas_int_l	vas_lat_l	med_gas_l	lat_gas_l	soleus_l	tib_post_l	flex_dig_l	flex_hal_l	tib_ant_l	per_brev_l	per_long_l	per_tert_l	ext_dig_l	ext_hal_l	ercspn_r	ercspn_l	intobl_r	intobl_l	extobl_r	extobl_l	femur_lat_meniscii_l.femur_lat_l.force.X	femur_lat_meniscii_l.femur_lat_l.force.Y	femur_lat_meniscii_l.femur_lat_l.force.Z	femur_lat_meniscii_l.femur_lat_l.torque.X	femur_lat_meniscii_l.femur_lat_l.torque.Y	femur_lat_meniscii_l.femur_lat_l.torque.Z	femur_lat_meniscii_l.meniscus_lat_l.force.X	femur_lat_meniscii_l.meniscus_lat_l.force.Y	femur_lat_meniscii_l.meniscus_lat_l.force.Z	femur_lat_meniscii_l.meniscus_lat_l.torque.X	femur_lat_meniscii_l.meniscus_lat_l.torque.Y	femur_lat_meniscii_l.meniscus_lat_l.torque.Z	femur_med_meniscii_l.femur_med_l.force.X	femur_med_meniscii_l.femur_med_l.force.Y	femur_med_meniscii_l.femur_med_l.force.Z	femur_med_meniscii_l.femur_med_l.torque.X	femur_med_meniscii_l.femur_med_l.torque.Y	femur_med_meniscii_l.femur_med_l.torque.Z	femur_med_meniscii_l.meniscus_med_l.force.X	femur_med_meniscii_l.meniscus_med_l.force.Y	femur_med_meniscii_l.meniscus_med_l.force.Z	femur_med_meniscii_l.meniscus_med_l.torque.X	femur_med_meniscii_l.meniscus_med_l.torque.Y	femur_med_meniscii_l.meniscus_med_l.torque.Z	femur_lat_meniscii_r.femur_lat_r.force.X	femur_lat_meniscii_r.femur_lat_r.force.Y	femur_lat_meniscii_r.femur_lat_r.force.Z	femur_lat_meniscii_r.femur_lat_r.torque.X	femur_lat_meniscii_r.femur_lat_r.torque.Y	femur_lat_meniscii_r.femur_lat_r.torque.Z	femur_lat_meniscii_r.meniscus_lat_r.force.X	femur_lat_meniscii_r.meniscus_lat_r.force.Y	femur_lat_meniscii_r.meniscus_lat_r.force.Z	femur_lat_meniscii_r.meniscus_lat_r.torque.X	femur_lat_meniscii_r.meniscus_lat_r.torque.Y	femur_lat_meniscii_r.meniscus_lat_r.torque.Z	femur_med_meniscii_r.femur_med_r.force.X	femur_med_meniscii_r.femur_med_r.force.Y	femur_med_meniscii_r.femur_med_r.force.Z	femur_med_meniscii_r.femur_med_r.torque.X	femur_med_meniscii_r.femur_med_r.torque.Y	femur_med_meniscii_r.femur_med_r.torque.Z	femur_med_meniscii_r.meniscus_med_r.force.X	femur_med_meniscii_r.meniscus_med_r.force.Y	femur_med_meniscii_r.meniscus_med_r.force.Z	femur_med_meniscii_r.meniscus_med_r.torque.X	femur_med_meniscii_r.meniscus_med_r.torque.Y	femur_med_meniscii_r.meniscus_med_r.torque.Z	femur_med_tibia_l.tibia_upper_l.force.X	femur_med_tibia_l.tibia_upper_l.force.Y	femur_med_tibia_l.tibia_upper_l.force.Z	femur_med_tibia_l.tibia_upper_l.torque.X	femur_med_tibia_l.tibia_upper_l.torque.Y	femur_med_tibia_l.tibia_upper_l.torque.Z	femur_med_tibia_l.femur_med_l.force.X	femur_med_tibia_l.femur_med_l.force.Y	femur_med_tibia_l.femur_med_l.force.Z	femur_med_tibia_l.femur_med_l.torque.X	femur_med_tibia_l.femur_med_l.torque.Y	femur_med_tibia_l.femur_med_l.torque.Z	femur_lat_tibia_l.tibia_upper_l.force.X	femur_lat_tibia_l.tibia_upper_l.force.Y	femur_lat_tibia_l.tibia_upper_l.force.Z	femur_lat_tibia_l.tibia_upper_l.torque.X	femur_lat_tibia_l.tibia_upper_l.torque.Y	femur_lat_tibia_l.tibia_upper_l.torque.Z	femur_lat_tibia_l.femur_lat_l.force.X	femur_lat_tibia_l.femur_lat_l.force.Y	femur_lat_tibia_l.femur_lat_l.force.Z	femur_lat_tibia_l.femur_lat_l.torque.X	femur_lat_tibia_l.femur_lat_l.torque.Y	femur_lat_tibia_l.femur_lat_l.torque.Z	femur_med_tibia_r.tibia_upper_r.force.X	femur_med_tibia_r.tibia_upper_r.force.Y	femur_med_tibia_r.tibia_upper_r.force.Z	femur_med_tibia_r.tibia_upper_r.torque.X	femur_med_tibia_r.tibia_upper_r.torque.Y	femur_med_tibia_r.tibia_upper_r.torque.Z	femur_med_tibia_r.femur_med_r.force.X	femur_med_tibia_r.femur_med_r.force.Y	femur_med_tibia_r.femur_med_r.force.Z	femur_med_tibia_r.femur_med_r.torque.X	femur_med_tibia_r.femur_med_r.torque.Y	femur_med_tibia_r.femur_med_r.torque.Z	femur_lat_tibia_r.tibia_upper_r.force.X	femur_lat_tibia_r.tibia_upper_r.force.Y	femur_lat_tibia_r.tibia_upper_r.force.Z	femur_lat_tibia_r.tibia_upper_r.torque.X	femur_lat_tibia_r.tibia_upper_r.torque.Y	femur_lat_tibia_r.tibia_upper_r.torque.Z	femur_lat_tibia_r.femur_lat_r.force.X	femur_lat_tibia_r.femur_lat_r.force.Y	femur_lat_tibia_r.femur_lat_r.force.Z	femur_lat_tibia_r.femur_lat_r.torque.X	femur_lat_tibia_r.femur_lat_r.torque.Y	femur_lat_tibia_r.femur_lat_r.torque.Z	aACL_R	pACL_R	aPCL_R	pPCL_R	aMCL_R	mMCL_R	pMCL_R	aLCL_R	mLCL_R	pLCL_R	aPCL_L	pPCL_L	aMCL_L	aLCL_L
      0.08530842	     18.90443220	     13.38919120	     14.47488233	      6.07242914	      6.92249974	      7.98232101	    155.34039928	    188.95443705	    199.65430399	    340.22656685	    134.69035766	     13.39160526	      9.38617698	      6.87402970	      5.88937873	     10.18954092	      6.43454814	      5.14259944	    104.77498052	      8.67104907	     13.20066827	      9.97947132	     36.95269078	     29.23240149	      8.42879956	      5.21427362	     11.70857408	     45.90584022	     35.74509610	     37.88806569	     50.88005054	     51.02074090	      6.94823125	      0.00000000	      0.00000000	      0.45651532	      0.00000000	     35.36734070	      9.02093414	     10.68308409	     15.15203104	     21.65869916	      6.21422339	     18.90443220	     13.38919120	     14.47488233	      6.07242914	      6.92249974	      7.98232101	     24.05818486	     10.16539334	     20.79866224	     16.78749517	      3.45764503	     13.39160526	      9.38617698	      6.87402970	      5.88937873	     10.18954092	      7.94450526	      5.14259944	      3.59671575	      8.67104907	     13.20066827	      9.97947132	     36.95269078	     29.23240149	      8.42879956	      5.21427362	     11.70857408	     28.67739772	     15.97212566	     18.56297757	     19.95658895	     41.62604399	     19.37682611	     89.21883538	     67.70766513	      9.52421035	      9.36671701	     22.27462590	     12.08517220	     29.16872596	      4.51310973	     14.78301277	      4.62002767	     57.21297718	     57.21297718	     21.95348059	     21.95348059	     38.62942392	     38.62942392	      2.76307435	     50.99597937	     -9.56042239	      5.21997485	     -0.02578839	      1.48581788	     -2.76307435	    -50.99597937	      9.56042239	     -1.74637766	      0.02558040	     -0.48301696	     -3.31599387	     20.97615968	     -3.40468921	      0.94473225	     -0.02138609	     -1.00501789	      3.31599387	    -20.97615968	      3.40468921	      0.28075727	      0.00368718	     -0.29758878	     11.73155282	    323.06657230	     25.70479970	    -18.26346803	      0.41615348	      2.96109942	    -11.73155282	   -323.06657230	    -25.70479970	      9.31073684	     -0.74074225	      5.20442695	      7.14501403	    396.95785297	     13.36826565	      2.83883437	      0.13080914	      0.34797794	     -7.14501403	   -396.95785297	    -13.36826565	     -6.85069149	     -0.30255463	      6.89608018	      0.00000000	      0.00000000	      0.00000000	      0.00000000	      0.00000000	      0.00000000	      0.00000000	      0.00000000	      0.00000000	      0.00000000	      0.00000000	      0.00000000	      0.00000000	      0.00000000	      0.00000000	      0.00000000	      0.00000000	      0.00000000	      0.00000000	      0.00000000	      0.00000000	      0.00000000	      0.00000000	      0.00000000	    -13.91642317	   -468.95625910	     18.72238017	     -9.09630352	      0.47105596	      5.60122882	     13.91642317	    468.95625910	    -18.72238017	     17.59874303	     -0.29783805	      5.05741427	      0.00000000	      0.00000000	      0.00000000	      0.00000000	      0.00000000	      0.00000000	      0.00000000	      0.00000000	      0.00000000	      0.00000000	      0.00000000	      0.00000000	      0.83469477	      0.00000000	      0.00000000	      0.00000000	      0.00000000	      0.00000000	    -16.73525525	      0.00000000	      0.00000000	      0.00000000	      0.00000000	      0.00000000	      0.00000001	      0.00000000
      0.08584764	     18.82161421	     13.33289295	     14.41344090	      6.04776300	      6.89521107	      7.94738103	    154.24179634	    188.36096026	    198.52148264	    339.36069605	    134.54023212	     13.33478553	      9.34837884	      6.84515159	      5.86419460	     10.14450930	      6.45293327	      5.12156030	    106.18176663	      8.63429880	     13.14467071	      9.93674113	     36.84668103	     29.11235253	      8.39391326	      5.19670250	     11.65691017	     45.74365799	     37.59288445	     39.98565780	     50.93311533	     50.72345641	      6.76539723	      0.00000000	      0.00000000	      0.36860421	      0.00000000	     35.26484388	      8.73715095	     10.38054602	     15.36252535	     21.70176256	      6.19696342	     18.82161421	     13.33289295	     14.41344090	      6.04776300	      6.89521107	      7.94738103	     23.95214670	     10.12097215	     20.70617169	     16.71789968	      3.44366071	     13.33478553	      9.34837884	      6.84515159	      5.86419460	     10.14450930	      7.91672935	      5.12156030	      3.58194011	      8.63429880	     13.14467071	      9.93674113	     36.84668103	     29.11235253	      8.39391326	      5.19670250	     11.65691017	     28.54967584	     15.90296323	     18.48195569	     19.86915068	     41.44585925	     19.29257932	     88.82408016	     67.52753450	      9.48104679	      9.32376856	     22.17551303	     12.03100095	     29.05025438	      4.49460536	     14.71797406	      4.59952216	     56.98012530	     56.98012530	     21.85877693	     21.85877693	     38.54131217	     38.54131217	      2.76307435	     50.99597937	     -9.56042239	      5.21997485	     -0.02578839	      1.48581788	     -2.76307435	    -50.99597937	      9.56042239	     -1.74637766	      0.02558040	     -0.48301696	     -3.31599387	     20.97615968	     -3.40468921	      0.94473225	     -0.02138609	     -1.00501789	      3.31599387	    -20.97615968	      3.40468921	      0.28075727	      0.00368718	     -0.29758878	      9.65927892	    320.32471089	     25.08950280	    -17.92423926	      0.35754166	      2.08122924	     -9.65927892	   -320.32471089	    -25.08950280	      9.19335063	     -0.67180593	      5.29240031	      7.56047570	    393.66044084	     13.13839709	      2.87791820	      0.14444583	      0.52850235	     -7.56047570	   -393.66044084	    -13.13839709	     -6.81842743	     -0.31600853	      6.87952236	      0.00000000	      0.00000000	      0.00000000	      0.00000000	      0.00000000	      0.00000000	      0.00000000	      0.00000000	      0.00000000	      0.00000000	      0.00000000	      0.00000000	      0.00000000	      0.00000000	      0.00000000	      0.00000000	      0.00000000	      0.00000000	      0.00000000	      0.00000000	      0.00000000	      0.00000000	      0.00000000	      0.00000000	    -13.76497342	   -462.11572487	     18.75913984	     -8.98735500	      0.47442641	      5.60952404	     13.76497342	    462.11572487	    -18.75913984	     17.47659878	     -0.29812043	      4.96281468	      0.00000000	      0.00000000	      0.00000000	      0.00000000	      0.00000000	      0.00000000	      0.00000000	      0.00000000	      0.00000000	      0.00000000	      0.00000000	      0.00000000	      0.25645806	      0.00000000	      0.00000000	      0.00000000	      0.00000000	      0.00000000	    -17.05676827	      0.00000000	      0.00000000	      0.00000000	      0.00000000	      0.00000000	      0.00000001	      0.00000000
      0.08638686	     18.73941389	     13.27701975	     14.35246411	      6.02328155	      6.86812890	      7.91270227	    153.11674178	    187.72298069	    197.35677893	    338.37173587	    134.36406893	     13.27839531	      9.31086278	      6.81649209	      5.83920145	     10.09980844	      6.47037011	      5.10067922	    107.10879363	      8.59782785	     13.08909830	      9.89433458	     36.74149029	     28.99321069	      8.35928965	      5.17926597	     11.60558122	     45.58835292	     39.07322622	     37.85978037	     50.96223032	     50.15414359	      6.58961370	      0.00000000	      0.00000000	      0.28581606	      0.00000000	     35.19847439	      8.43920455	     10.06526292	     15.23736820	     21.74682700	      6.17966961	     18.73941389	     13.27701975	     14.35246411	      6.02328155	      6.86812890	      7.91270227	     23.84681260	     10.07688409	     20.61432169	     16.64882888	      3.42978093	     13.27839531	      9.31086278	      6.81649209	      5.83920145	     10.09980844	      7.88914648	      5.10067922	      3.56727551	      8.59782785	     13.08909830	      9.89433458	     36.74149029	     28.99321069	      8.35928965	      5.17926597	     11.60558122	     28.42284994	     15.83432781	     18.40154719	     19.78237711	     41.26676553	     19.20884642	     88.43188472	     67.34857486	      9.43824764	      9.28118994	     22.07711119	     11.97720044	     28.93266467	      4.47624188	     14.65323608	      4.57910968	     56.74901798	     56.74901798	     21.76478775	     21.76478775	     38.45388779	     38.45388779	      2.76307435	     50.99597937	     -9.56042239	      5.21997485	     -0.02578839	      1.48581788	     -2.76307435	    -50.99597937	      9.56042239	     -1.74637766	      0.02558040	     -0.48301696	     -3.31599387	     20.97615968	     -3.40468921	      0.94473225	     -0.02138609	     -1.00501789	      3.31599387	    -20.97615968	      3.40468921	      0.28075727	      0.00368718	     -0.29758878	      7.07870227	    321.27877990	     24.43915482	    -17.66617700	      0.28451436	      0.96439980	     -7.07870227	   -321.27877990	    -24.43915482	      9.18101940	     -0.58656774	      5.46410590	      8.12809998	    397.82929307	     13.32158012	      2.86942311	      0.14366209	      0.70107488	     -8.12809998	   -397.82929307	    -13.32158012	     -6.87615535	     -0.32016564	      7.01463180	      0.00000000	      0.00000000	      0.00000000	      0.00000000	      0.00000000	      0.00000000	      0.00000000	      0.00000000	      0.00000000	      0.00000000	      0.00000000	      0.00000000	      0.00000000	      0.00000000	      0.00000000	      0.00000000	      0.00000000	      0.00000000	      0.00000000	      0.00000000	      0.00000000	      0.00000000	      0.00000000	      0.00000000	    -13.06526590	   -456.90519785	     18.78765385	     -8.90843302	      0.46565813	      5.65892941	     13.06526590	    456.90519785	    -18.78765385	     17.38614988	     -0.28484885	      4.63380466	      0.00000000	      0.00000000	      0.00000000	      0.00000000	      0.00000000	      0.00000000	      0.00000000	      0.00000000	      0.00000000	      0.00000000	      0.00000000	      0.00000000	     -0.62774754	      0.00000000	      0.00000000	      0.00000000	      0.00000000	      0.00000000	    -17.83308157	      0.00000000	      0.00000000	      0.00000000	      0.00000000	      0.00000000	      0.00000001	      0.00000000
      0.08692607	     18.65782664	     13.22156821	     14.29194825	      5.99898332	      6.84125159	      7.87828276	    151.94926541	    187.02496788	    196.14614257	    337.20480131	    134.15047834	     13.22243119	      9.27362658	      6.78804944	      5.81439774	     10.05543601	      6.48566447	      5.07995491	    107.67403730	      8.56163396	     13.03394766	      9.85224912	     36.63711192	     28.87496920	      8.32492663	      5.16196302	     11.55458605	     45.42975231	     35.57317454	     39.95833444	     50.96601294	     49.24604113	      6.41980494	      0.00000000	      0.00000000	      0.20818174	      0.00000000	     35.27858497	      8.12718746	      9.73698237	     15.65632957	     21.79419854	      6.16265728	     18.65782664	     13.22156821	     14.29194825	      5.99898332	      6.84125159	      7.87828276	     23.74217952	     10.03312662	     20.52310874	     16.58027858	      3.41600485	     13.22243119	      9.27362658	      6.78804944	      5.81439774	     10.05543601	      7.86175581	      5.07995491	      3.55272106	      8.56163396	     13.03394766	      9.85224912	     36.63711192	     28.87496920	      8.32492663	      5.16196302	     11.55458605	     28.29691484	     15.76621527	     18.32174739	     19.69626320	     41.08876131	     19.12562659	     88.04223996	     67.17078539	      9.39580821	      9.23897622	     21.97941584	     11.92376883	     28.81595017	      4.45801820	     14.58880516	      4.55879269	     56.51964133	     56.51964133	     21.67150745	     21.67150745	     38.36714510	     38.36714510	      2.76307435	     50.99597937	     -9.56042239	      5.21997485	     -0.02578839	      1.48581788	     -2.76307435	    -50.99597937	      9.56042239	     -1.74637766	      0.02558040	     -0.48301696	     -3.31599387	     20.97615968	     -3.40468921	      0.94473225	     -0.02138609	     -1.00501789	      3.31599387	    -20.97615968	      3.40468921	      0.28075727	      0.00368718	     -0.29758878	      7.69788626	    324.32900229	     23.36077990	    -17.27934619	      0.31164672	      1.18489681	     -7.69788626	   -324.32900229	    -23.36077990	      9.20995678	     -0.60527184	      5.55068235	      4.39509860	    399.69294330	     13.28920901	      2.97495986	      0.17748381	     -0.87948602	     -4.39509860	   -399.69294330	    -13.28920901	     -6.97171370	     -0.34456204	      7.22644873	      0.00000000	      0.00000000	      0.00000000	      0.00000000	      0.00000000	      0.00000000	      0.00000000	      0.00000000	      0.00000000	      0.00000000	      0.00000000	      0.00000000	      0.00000000	      0.00000000	      0.00000000	      0.00000000	      0.00000000	      0.00000000	      0.00000000	      0.00000000	      0.00000000	      0.00000000	      0.00000000	      0.00000000	    -13.58958837	   -453.39858183	     18.38137282	     -8.84206634	      0.47406069	      5.68179447	     13.58958837	    453.39858183	    -18.38137282	     17.14630007	     -0.29722309	      4.81954481	      0.00000000	      0.00000000	      0.00000000	      0.00000000	      0.00000000	      0.00000000	      0.00000000	      0.00000000	      0.00000000	      0.00000000	      0.00000000	      0.00000000	     -1.61686114	      0.00000000	      0.00000000	      0.00000000	      0.00000000	      0.00000000	      0.00000000	      0.00000000	      0.00000000	      0.00000000	      0.00000000	      0.00000000	      0.00000001	      0.00000000
